PathFileType	4	(X/Y/Z)	C:\Users\willi\Documents\UniDataLokal\DATA_Hans_PhD\TD01\3DGAIT_A_W12\marker_experimental.trc
DataRate	CameraRate	NumFrames	NumMarkers	Units	OrigDataRate	OrigDataStartFrame	OrigNumFrames
100.000000	100.000000	4	76	mm	100.000000	0	174
Frame#	Time	RBAK			C7			CLAV			T10			STRN			RASI			RPSI			LPSI			LASI			RTHI1			RTHI2			RTHI3			RTHI			RKNE			RKNEM			RPAT			RTIB1			RTIB2			RTIB3			RTIB			RANK			RANKM			RHEEL			RTOE			RM5			LTHI1			LTHI2			LTHI3			LTHI			LKNE			LKNEM			LPAT			LTIB1			LTIB2			LTIB3			LTIB			LANK			LANKM			LHEEL			LTOE			LM5			*41			*42			*43			*44			*45			*46			*47			*48			*49			*50			*51			*52			*53			*54			*55			*56			*57			*58			*59			*60			*61			*62			*63			*64			*65			*66			*67			*68			*69			*70			*71			*72			*73			*74			*75			
		X1	Y1	Z1	X2	Y2	Z2	X3	Y3	Z3	X4	Y4	Z4	X5	Y5	Z5	X6	Y6	Z6	X7	Y7	Z7	X8	Y8	Z8	X9	Y9	Z9	X10	Y10	Z10	X11	Y11	Z11	X12	Y12	Z12	X13	Y13	Z13	X14	Y14	Z14	X15	Y15	Z15	X16	Y16	Z16	X17	Y17	Z17	X18	Y18	Z18	X19	Y19	Z19	X20	Y20	Z20	X21	Y21	Z21	X22	Y22	Z22	X23	Y23	Z23	X24	Y24	Z24	X25	Y25	Z25	X26	Y26	Z26	X27	Y27	Z27	X28	Y28	Z28	X29	Y29	Z29	X30	Y30	Z30	X31	Y31	Z31	X32	Y32	Z32	X33	Y33	Z33	X34	Y34	Z34	X35	Y35	Z35	X36	Y36	Z36	X37	Y37	Z37	X38	Y38	Z38	X39	Y39	Z39	X40	Y40	Z40	X41	Y41	Z41	X42	Y42	Z42	X43	Y43	Z43	X44	Y44	Z44	X45	Y45	Z45	X46	Y46	Z46	X47	Y47	Z47	X48	Y48	Z48	X49	Y49	Z49	X50	Y50	Z50	X51	Y51	Z51	X52	Y52	Z52	X53	Y53	Z53	X54	Y54	Z54	X55	Y55	Z55	X56	Y56	Z56	X57	Y57	Z57	X58	Y58	Z58	X59	Y59	Z59	X60	Y60	Z60	X61	Y61	Z61	X62	Y62	Z62	X63	Y63	Z63	X64	Y64	Z64	X65	Y65	Z65	X66	Y66	Z66	X67	Y67	Z67	X68	Y68	Z68	X69	Y69	Z69	X70	Y70	Z70	X71	Y71	Z71	X72	Y72	Z72	X73	Y73	Z73	X74	Y74	Z74	X75	Y75	Z75	X76	Y76	Z76	

1	0	-1475.524780273438	1180.383666992188	326.6871643066405	-1473.4453125	1214.248901367188	201.4024353027343	-1356.43310546875	1145.438720703125	215.2014770507812	-1523.836547851562	955.1730957031251	195.3231964111327	-1313.874755859375	940.2829589843751	200.3924560546874	-1381.385620117188	844.5480346679689	295.9338684082031	-1539.21728515625	842.8107910156251	245.3795013427734	-1550.199340820312	852.9377441406251	167.8569946289062	-1419.566528320312	853.5441894531251	67.71107482910148	-1413.104125976562	588.1739501953126	322.222442626953	-1347.046752929688	572.7419433593751	343.7551879882812	-1348.215087890625	510.0134277343751	325.8021240234374	-1344.291259765625	538.2272338867189	373.9278869628906	-1277.84423828125	445.2792053222657	333.1073608398437	-1245.303100585938	443.0718383789063	226.6833496093749	-1204.333618164062	481.7512817382813	290.0208435058593	-1159.969970703125	282.9885253906251	299.0257263183593	-1160.985107421875	238.8602447509766	348.7046508789062	-1128.4677734375	196.9988250732422	307.5571594238281	-1199.9736328125	191.580047607422	391.2863464355468	-1149.247436523438	105.5969161987305	355.1525573730468	-1118.87841796875	123.8924407958985	286.5553894042968	-1180.1171875	78.5090408325196	303.3358459472656	-1012.9638671875	85.33655548095709	351.4951782226562	-1042.848999023438	55.7299766540528	372.8954772949218	-1587.942993164062	601.8267822265626	82.93318939208974	-1562.951538085938	542.3604736328126	66.61882781982412	-1608.830078125	506.6501464843751	98.48512268066396	-1555.198486328125	516.1257324218751	35.53430938720694	-1584.639526367188	433.5657653808595	86.05953979492178	-1582.681396484375	431.8854064941407	194.8625183105468	-1521.689819335938	422.1007690429689	145.3858184814452	-1628.972778320312	245.4752807617189	152.7822875976561	-1659.614990234375	203.9981536865236	103.847930908203	-1668.613159179688	154.4209747314454	160.5612640380858	-1706.436279296875	183.902313232422	63.27704238891591	-1739.098876953125	94.59856414794932	115.9679718017577	-1719.361938476562	106.5047454833985	190.8805847167968	-1788.829956054688	83.6591033935548	165.5990753173827	-1616.449096679688	36.08901977539072	147.5909576416015	-1647.987548828125	25.57333946228037	107.3101196289062	nan	nan	nan	nan	nan	nan	nan	nan	nan	nan	nan	nan	nan	nan	nan	nan	nan	nan	nan	nan	nan	nan	nan	nan	nan	nan	nan	nan	nan	nan	nan	nan	nan	nan	nan	nan	nan	nan	nan	nan	nan	nan	nan	nan	nan	nan	nan	nan	nan	nan	nan	nan	nan	nan	nan	nan	nan	nan	nan	nan	nan	nan	nan	nan	nan	nan	nan	nan	nan	nan	nan	nan	nan	nan	nan	nan	nan	nan	nan	nan	nan	nan	nan	nan	nan	nan	nan	nan	nan	nan	nan	nan	nan	nan	nan	nan	nan	nan	nan	nan	nan	nan	nan	nan	nan	
2	0.01	-1459.755249023438	1180.24462890625	327.844024658203	-1457.412841796875	1212.774780273438	203.1827392578124	-1340.266235351562	1144.815795898438	217.4493560791015	-1507.025024414062	953.8866577148439	196.9105529785155	-1298.140991210938	939.3945312500001	202.289581298828	-1364.838623046875	844.1348266601564	298.0937499999999	-1522.132934570312	842.1880493164064	248.4400482177734	-1533.60546875	852.1709594726564	170.9908599853515	-1405.33544921875	851.8706054687501	68.79359436035148	-1396.563110351562	588.4563598632814	323.6223144531249	-1330.53662109375	572.7443237304689	344.9584350585937	-1332.084228515625	510.0112915039063	327.0548706054687	-1327.987915039062	538.2966308593751	375.0175781249999	-1262.506469726562	443.9002685546876	333.3123168945312	-1230.217895507812	443.3374633789063	226.5965576171874	-1189.509033203125	482.2185058593751	290.4106140136718	-1144.369995117188	280.7634277343751	298.2158508300781	-1145.717895507812	236.2832336425782	347.1828002929687	-1112.882690429688	194.6476135253907	305.6607666015624	-1185.001953125	188.7367553710938	388.7733154296874	-1134.0419921875	102.4175338745118	351.2730407714843	-1103.029663085938	122.454689025879	283.6229248046874	-1164.29443359375	77.16257476806648	298.6895446777343	-996.1232299804688	81.61716461181646	346.1714782714843	-1025.669189453125	50.58452224731452	366.0608825683593	-1575.116333007812	602.9633789062501	87.15241241455068	-1551.55126953125	543.4902954101564	69.21851348876943	-1596.864135742188	507.9310607910157	102.0491943359374	-1544.818481445312	517.4002685546876	37.6022186279296	-1574.263671875	434.6085815429689	87.67102813720693	-1570.157592773438	431.7353515625001	196.8143005371093	-1510.007202148438	421.9884033203126	146.3673706054687	-1622.690185546875	246.535140991211	153.4299163818359	-1654.818237304688	206.2490539550782	104.0595245361327	-1664.4462890625	156.5255584716798	160.5730590820311	-1702.418090820312	188.0416259765626	63.68989181518544	-1737.436279296875	99.01644134521494	115.7124404907226	-1716.979858398438	110.0149841308595	190.6939544677733	-1787.49755859375	89.41664886474621	165.4102783203124	-1616.126098632812	36.46460342407237	147.3986511230468	-1648.136352539062	25.67993927001963	107.3402481079101	nan	nan	nan	nan	nan	nan	nan	nan	nan	nan	nan	nan	nan	nan	nan	nan	nan	nan	nan	nan	nan	nan	nan	nan	nan	nan	nan	nan	nan	nan	nan	nan	nan	nan	nan	nan	nan	nan	nan	nan	nan	nan	nan	nan	nan	nan	nan	nan	nan	nan	nan	nan	nan	nan	nan	nan	nan	nan	nan	nan	nan	nan	nan	nan	nan	nan	nan	nan	nan	nan	nan	nan	nan	nan	nan	nan	nan	nan	nan	nan	nan	nan	nan	nan	nan	nan	nan	nan	nan	nan	nan	nan	nan	nan	nan	nan	nan	nan	nan	nan	nan	nan	nan	nan	nan	
3	0.02	-1443.952880859375	1180.169555664062	329.0603942871093	-1441.415771484375	1211.468383789062	204.9488983154296	-1324.106201171875	1144.330932617188	219.6784515380859	-1490.191528320312	952.6973266601564	198.4411163330077	-1282.091918945312	938.7568359375001	204.3122100830077	-1348.1044921875	843.8867187500001	300.2874755859374	-1505.009155273438	841.6214599609376	251.2533721923827	-1516.806518554688	851.3813476562501	173.8229522705077	-1390.296264648438	850.3322753906251	70.16886138916007	-1380.058715820312	588.6688842773439	324.8905029296874	-1314.127075195312	572.5610961914064	346.1067810058593	-1316.058959960938	509.8780517578126	328.1392517089843	-1311.768920898438	538.1857299804689	376.0586547851562	-1247.365600585938	442.4112854003907	333.4314880371093	-1214.694702148438	443.5640258789063	226.9234771728515	-1174.642333984375	482.2051391601563	291.3191833496093	-1129.918701171875	278.0530090332032	296.9139099121093	-1131.886962890625	233.0933685302735	345.1495056152343	-1099.039672851562	191.6585693359376	303.1280822753906	-1171.85888671875	185.3899536132813	385.6775207519531	-1121.037963867188	98.85280609130866	346.8449401855468	-1089.519653320312	120.1735153198243	279.9373168945312	-1150.997192382812	75.09175872802741	293.7411193847656	-982.1744384765625	76.97344970703131	340.6565246582031	-1011.566040039062	45.42583084106452	359.7163696289062	-1561.310668945312	603.6434936523439	91.06727600097646	-1539.00634765625	544.2352905273439	71.5820312499999	-1583.6962890625	508.6889953613282	105.2771911621093	-1533.257080078125	518.4167480468751	39.45777893066397	-1562.55712890625	435.2439880371095	88.9672851562499	-1556.38916015625	431.1499328613282	198.3328399658202	-1497.043334960938	421.4065856933595	146.8969726562499	-1615.258544921875	247.4718627929688	153.863067626953	-1649.022705078125	208.5564270019532	104.1895523071288	-1659.306396484375	158.7303314208986	160.484405517578	-1697.434326171875	192.3420715332032	64.16043853759756	-1734.874267578125	103.8058547973634	115.6249237060546	-1713.537841796875	113.7728652954103	190.5634307861327	-1785.018920898438	95.79856872558605	165.505889892578	-1615.63037109375	36.71442031860362	147.2032928466796	-1648.125610351562	25.89533805847178	107.4137420654296	nan	nan	nan	nan	nan	nan	nan	nan	nan	nan	nan	nan	nan	nan	nan	nan	nan	nan	nan	nan	nan	nan	nan	nan	nan	nan	nan	nan	nan	nan	nan	nan	nan	nan	nan	nan	nan	nan	nan	nan	nan	nan	nan	nan	nan	nan	nan	nan	nan	nan	nan	nan	nan	nan	nan	nan	nan	nan	nan	nan	nan	nan	nan	nan	nan	nan	nan	nan	nan	nan	nan	nan	nan	nan	nan	nan	nan	nan	nan	nan	nan	nan	nan	nan	nan	nan	nan	nan	nan	nan	nan	nan	nan	nan	nan	nan	nan	nan	nan	nan	nan	nan	nan	nan	nan	
4	0.03	-1428.118408203125	1180.158081054688	330.3359985351561	-1425.454223632812	1210.330078125	206.7004089355468	-1307.953491210938	1143.983276367188	221.8878173828124	-1473.338623046875	951.6058959960939	199.9147796630859	-1265.732788085938	938.3666992187501	206.4572296142577	-1331.189086914062	843.8018188476564	302.5140991210937	-1487.8505859375	841.1109008789064	253.8189697265624	-1499.807373046875	850.5672607421876	176.3531494140624	-1374.459838867188	848.9218750000001	71.83362579345695	-1363.59912109375	588.8095092773439	326.0283813476562	-1297.825317382812	572.1866455078126	347.1955566406249	-1300.153076171875	509.6082153320313	329.0485534667968	-1295.650634765625	537.8764648437501	377.0385131835937	-1232.425903320312	440.8127441406251	333.4606018066406	-1198.78466796875	443.7189025878907	227.6278533935546	-1159.755004882812	481.6865844726563	292.6994628906249	-1116.60595703125	274.8747558593751	295.1187438964843	-1119.464965820312	229.3163757324219	342.6067199707031	-1086.913208007812	188.0564422607422	299.9653015136718	-1160.48974609375	181.5686645507813	382.0181579589843	-1110.18798828125	94.93377685546882	341.8906249999999	-1078.310302734375	117.0750732421876	275.5165100097656	-1140.175170898438	72.31636047363288	288.5145568847656	-971.0324096679688	71.52038574218756	334.9969787597656	-1000.463684082031	40.34819793701178	353.9153442382812	-1546.525268554688	603.8628540039064	94.6743164062499	-1525.3134765625	544.5901489257814	73.70713806152334	-1569.325439453125	508.919647216797	108.1661987304687	-1520.50537109375	519.1647338867189	41.09802627563467	-1549.517822265625	435.469451904297	89.94783020019521	-1541.36962890625	430.1228027343751	199.4151611328124	-1482.793334960938	420.3486633300782	146.971206665039	-1606.673583984375	248.2838439941407	154.0819091796874	-1642.220336914062	210.9179992675782	104.2389984130858	-1653.185668945312	161.0303955078126	160.2970733642577	-1691.475463867188	196.7990570068361	64.69053649902334	-1731.39501953125	108.9608306884767	115.7103424072265	-1709.01806640625	117.7677841186524	190.4926452636718	-1781.36865234375	102.8016510009767	165.8910369873046	-1614.967407226562	36.82762145996104	147.018569946289	-1647.9521484375	26.22524261474619	107.5378341674804	nan	nan	nan	nan	nan	nan	nan	nan	nan	nan	nan	nan	nan	nan	nan	nan	nan	nan	nan	nan	nan	nan	nan	nan	nan	nan	nan	nan	nan	nan	nan	nan	nan	nan	nan	nan	nan	nan	nan	nan	nan	nan	nan	nan	nan	nan	nan	nan	nan	nan	nan	nan	nan	nan	nan	nan	nan	nan	nan	nan	nan	nan	nan	nan	nan	nan	nan	nan	nan	nan	nan	nan	nan	nan	nan	nan	nan	nan	nan	nan	nan	nan	nan	nan	nan	nan	nan	nan	nan	nan	nan	nan	nan	nan	nan	nan	nan	nan	nan	nan	nan	nan	nan	nan	nan	
